<?xml version="1.0" encoding="UTF-8" standalone="no"?>
<svg
   xmlns:dc="http://purl.org/dc/elements/1.1/"
   xmlns:cc="http://creativecommons.org/ns#"
   xmlns:rdf="http://www.w3.org/1999/02/22-rdf-syntax-ns#"
   xmlns:svg="http://www.w3.org/2000/svg"
   xmlns="http://www.w3.org/2000/svg"
   xmlns:sodipodi="http://sodipodi.sourceforge.net/DTD/sodipodi-0.dtd"
   xmlns:inkscape="http://www.inkscape.org/namespaces/inkscape"
   width="300mm"
   height="300mm"
   viewBox="0 0 300 300"
   version="1.1"
   id="svg8"
   inkscape:version="1.0.1 (1.0.1+r73)"
   sodipodi:docname="holder.svg">
  <defs
     id="defs2" />
  <sodipodi:namedview
     id="base"
     pagecolor="#ffffff"
     bordercolor="#666666"
     borderopacity="1.0"
     inkscape:pageopacity="0.0"
     inkscape:pageshadow="2"
     inkscape:zoom="0.49497475"
     inkscape:cx="189.30428"
     inkscape:cy="509.39848"
     inkscape:document-units="mm"
     inkscape:current-layer="g841"
     inkscape:document-rotation="0"
     showgrid="false"
     inkscape:window-width="1920"
     inkscape:window-height="1057"
     inkscape:window-x="0"
     inkscape:window-y="0"
     inkscape:window-maximized="1" />
  <metadata
     id="metadata5">
    <rdf:RDF>
      <cc:Work
         rdf:about="">
        <dc:format>image/svg+xml</dc:format>
        <dc:type
           rdf:resource="http://purl.org/dc/dcmitype/StillImage" />
        <dc:title></dc:title>
      </cc:Work>
    </rdf:RDF>
  </metadata>
  <g
     inkscape:label="Layer 1"
     inkscape:groupmode="layer"
     id="layer1">
    <g
       id="g841"
       transform="translate(-27.863517,107.42464)">
      <path
         style="fill:none;stroke:#ff0000;stroke-width:0.521881px;stroke-linecap:butt;stroke-linejoin:miter;stroke-opacity:1"
         d="m 269.52111,-65.51979 c 1.32125,4.410916 -7.37233,39.864892 -20.93039,55.9573749 -14.63693,17.373025 -40.93005,-8.4322889 -52.81658,-6.0239559 -0.24921,0.05049 -0.58425,0.39141 -0.7284,0.189336 -1.04521,-1.465204 -3.13879,-2.500353 -2.05315,-2.52982 37.81971,3.555094 16.74762,-1.744175 -3.171,-2.99753 -0.47114,0.571915 -1.04217,1.817256 1.86031,7.48235 0.546,1.065689 -0.12038,0.710304 -0.72072,2.181513 -7.02726,17.2211599 -7.13808,42.318004 0,59.491719 0.64336,1.547868 1.52704,2.584234 2.61427,3.201265 0.18565,0.105362 0.60951,0.06929 0.57458,0.279866 -1.67189,10.0801 -1.36346,10.031709 2.44197,8.093727 30.50408,-15.534738 31.16617,-18.539949 -0.4032,-3.649893 -1.22571,0.578119 0.5646,-2.526308 1.03643,-4.023657 0.0447,-0.141797 0.29837,-0.02433 0.45019,-0.04164 13.34849,-1.521879 40.12862,-29.298942 53.20544,-15.353891 9.62773,10.266962 30.08172,58.212881 10.36337,58.240251 -98.09323,0.136158 -200.415149,0 -200.415149,0"
         id="path850-7"
         sodipodi:nodetypes="csssccsssssssssssc" />
      <path
         style="fill:none;stroke:#ff0000;stroke-width:0.52188px;stroke-linecap:butt;stroke-linejoin:miter;stroke-opacity:1"
         d="m 60.829081,94.977225 c -1.32125,-4.41091 9.290033,-33.619698 22.848093,-49.712183 14.63693,-17.373023 40.930046,8.43229 52.816576,6.023957 0.24921,-0.05049 0.58425,-0.391409 0.7284,-0.189336 1.04521,1.465204 3.13879,2.500352 2.05315,2.529819 -37.81971,-3.555093 -16.74762,1.744175 3.171,2.997531 0.47114,-0.571916 1.04217,-1.817257 -1.86031,-7.482351 -0.546,-1.065689 0.12038,-0.710303 0.72072,-2.181511 7.02726,-17.22116 7.13808,-42.3180061 0,-59.491721 -0.64336,-1.547868 -1.52704,-2.584233 -2.61427,-3.201265 -0.18565,-0.105362 -0.60951,-0.06929 -0.57458,-0.279866 1.67189,-10.080105 1.36346,-10.031705 -2.44197,-8.093725 -30.50408,15.5347369 -31.16617,18.5399489 0.4032,3.649892 1.22571,-0.57812 -0.5646,2.526308 -1.03643,4.023656 -0.0447,0.141798 -0.29837,0.02434 -0.45019,0.04164 -13.34849,1.521879 -40.128616,29.298943 -53.205436,15.3538909 -9.62773,-10.2669609 -31.999423,-64.4580679 -12.281073,-64.4854379 98.093229,-0.13616 200.415159,0 200.415159,0"
         id="path850-7-7"
         sodipodi:nodetypes="csssccsssssssssssc" />
    </g>
    <path
       style="fill:none;stroke:#000000;stroke-width:0.828637px;stroke-linecap:butt;stroke-linejoin:miter;stroke-opacity:1"
       d="m 163.00623,-44.735129 10.17929,-0.0053 v 0"
       id="path837" />
  </g>
</svg>
